<mxfile host="app.diagrams.net" agent="Mozilla/5.0 (Macintosh; Intel Mac OS X 10_15_7) AppleWebKit/537.36 (KHTML, like Gecko) Chrome/126.0.0.0 Safari/537.36" version="24.7.7">
  <diagram name="Page-1" id="t3iNnT4tj3k8JC36yZOy">
    <mxGraphModel dx="2876" dy="1171" grid="1" gridSize="10" guides="1" tooltips="1" connect="1" arrows="1" fold="1" page="1" pageScale="1" pageWidth="827" pageHeight="1169" math="0" shadow="0">
      <root>
        <mxCell id="0" />
        <mxCell id="1" parent="0" />
        <mxCell id="FOArocmedaqUSWt9QYAK-2" value="PAYOUT" style="whiteSpace=wrap;html=1;aspect=fixed;" vertex="1" parent="1">
          <mxGeometry x="610" y="150" width="150" height="150" as="geometry" />
        </mxCell>
        <mxCell id="FOArocmedaqUSWt9QYAK-3" value="MERCHANT APP" style="whiteSpace=wrap;html=1;aspect=fixed;" vertex="1" parent="1">
          <mxGeometry x="610" y="360" width="160" height="160" as="geometry" />
        </mxCell>
        <mxCell id="FOArocmedaqUSWt9QYAK-4" value="MERCHANT DASHBOARD" style="whiteSpace=wrap;html=1;aspect=fixed;" vertex="1" parent="1">
          <mxGeometry x="-240" y="220" width="230" height="230" as="geometry" />
        </mxCell>
        <mxCell id="FOArocmedaqUSWt9QYAK-5" value="" style="endArrow=classic;startArrow=classic;html=1;rounded=0;exitX=1;exitY=0.25;exitDx=0;exitDy=0;entryX=0;entryY=0.25;entryDx=0;entryDy=0;" edge="1" parent="1" source="FOArocmedaqUSWt9QYAK-4" target="FOArocmedaqUSWt9QYAK-1">
          <mxGeometry width="50" height="50" relative="1" as="geometry">
            <mxPoint x="100" y="300" as="sourcePoint" />
            <mxPoint x="211" y="287" as="targetPoint" />
          </mxGeometry>
        </mxCell>
        <mxCell id="FOArocmedaqUSWt9QYAK-7" value="SUBSCRIBE" style="text;html=1;align=center;verticalAlign=middle;whiteSpace=wrap;rounded=0;" vertex="1" parent="1">
          <mxGeometry x="240" y="238" width="60" height="30" as="geometry" />
        </mxCell>
        <mxCell id="FOArocmedaqUSWt9QYAK-8" value="" style="endArrow=classic;html=1;rounded=0;exitX=1.016;exitY=0.609;exitDx=0;exitDy=0;exitPerimeter=0;" edge="1" parent="1" source="FOArocmedaqUSWt9QYAK-1">
          <mxGeometry width="50" height="50" relative="1" as="geometry">
            <mxPoint x="130" y="390" as="sourcePoint" />
            <mxPoint x="320" y="360" as="targetPoint" />
            <Array as="points">
              <mxPoint x="320" y="360" />
            </Array>
          </mxGeometry>
        </mxCell>
        <mxCell id="FOArocmedaqUSWt9QYAK-10" value="" style="endArrow=classic;html=1;rounded=0;exitX=0.989;exitY=0.701;exitDx=0;exitDy=0;exitPerimeter=0;" edge="1" parent="1" source="FOArocmedaqUSWt9QYAK-4">
          <mxGeometry width="50" height="50" relative="1" as="geometry">
            <mxPoint x="-116" y="360" as="sourcePoint" />
            <mxPoint x="210" y="384.55213241991055" as="targetPoint" />
            <Array as="points" />
          </mxGeometry>
        </mxCell>
        <mxCell id="FOArocmedaqUSWt9QYAK-1" value="SUBSCRIPTON ENGINE" style="whiteSpace=wrap;html=1;aspect=fixed;" vertex="1" parent="1">
          <mxGeometry x="210" y="215" width="240" height="240" as="geometry" />
        </mxCell>
        <mxCell id="FOArocmedaqUSWt9QYAK-11" value="" style="endArrow=classic;html=1;rounded=0;exitX=1.01;exitY=0.161;exitDx=0;exitDy=0;exitPerimeter=0;entryX=-0.025;entryY=0.667;entryDx=0;entryDy=0;entryPerimeter=0;" edge="1" parent="1" source="FOArocmedaqUSWt9QYAK-1" target="FOArocmedaqUSWt9QYAK-2">
          <mxGeometry width="50" height="50" relative="1" as="geometry">
            <mxPoint x="670" y="150" as="sourcePoint" />
            <mxPoint x="720" y="100" as="targetPoint" />
          </mxGeometry>
        </mxCell>
        <mxCell id="FOArocmedaqUSWt9QYAK-12" value="" style="endArrow=classic;html=1;rounded=0;exitX=1;exitY=0.75;exitDx=0;exitDy=0;entryX=-0.008;entryY=0.203;entryDx=0;entryDy=0;entryPerimeter=0;" edge="1" parent="1" source="FOArocmedaqUSWt9QYAK-1" target="FOArocmedaqUSWt9QYAK-3">
          <mxGeometry width="50" height="50" relative="1" as="geometry">
            <mxPoint x="520" y="420" as="sourcePoint" />
            <mxPoint x="570" y="370" as="targetPoint" />
          </mxGeometry>
        </mxCell>
        <mxCell id="FOArocmedaqUSWt9QYAK-13" value="PUB" style="text;html=1;align=center;verticalAlign=middle;whiteSpace=wrap;rounded=0;" vertex="1" parent="1">
          <mxGeometry x="-10" y="250" width="60" height="30" as="geometry" />
        </mxCell>
        <mxCell id="FOArocmedaqUSWt9QYAK-15" value="SUB" style="text;html=1;align=center;verticalAlign=middle;whiteSpace=wrap;rounded=0;" vertex="1" parent="1">
          <mxGeometry x="150" y="250" width="60" height="30" as="geometry" />
        </mxCell>
        <mxCell id="FOArocmedaqUSWt9QYAK-17" value="api" style="text;html=1;align=center;verticalAlign=middle;resizable=0;points=[];autosize=1;strokeColor=none;fillColor=none;" vertex="1" parent="1">
          <mxGeometry x="80" y="358" width="40" height="30" as="geometry" />
        </mxCell>
        <mxCell id="FOArocmedaqUSWt9QYAK-18" value="api" style="text;html=1;align=center;verticalAlign=middle;resizable=0;points=[];autosize=1;strokeColor=none;fillColor=none;" vertex="1" parent="1">
          <mxGeometry x="500" y="228" width="40" height="30" as="geometry" />
        </mxCell>
        <mxCell id="FOArocmedaqUSWt9QYAK-19" value="api" style="text;html=1;align=center;verticalAlign=middle;resizable=0;points=[];autosize=1;strokeColor=none;fillColor=none;" vertex="1" parent="1">
          <mxGeometry x="510" y="358" width="40" height="30" as="geometry" />
        </mxCell>
        <mxCell id="FOArocmedaqUSWt9QYAK-20" value="MONGO&amp;nbsp;" style="shape=cylinder3;whiteSpace=wrap;html=1;boundedLbl=1;backgroundOutline=1;size=15;" vertex="1" parent="1">
          <mxGeometry x="330" y="505" width="140" height="145" as="geometry" />
        </mxCell>
        <mxCell id="FOArocmedaqUSWt9QYAK-21" value="" style="endArrow=classic;html=1;rounded=0;exitX=0.5;exitY=1;exitDx=0;exitDy=0;entryX=0.611;entryY=0.034;entryDx=0;entryDy=0;entryPerimeter=0;" edge="1" parent="1" source="FOArocmedaqUSWt9QYAK-1" target="FOArocmedaqUSWt9QYAK-20">
          <mxGeometry width="50" height="50" relative="1" as="geometry">
            <mxPoint x="200" y="520" as="sourcePoint" />
            <mxPoint x="250" y="470" as="targetPoint" />
          </mxGeometry>
        </mxCell>
      </root>
    </mxGraphModel>
  </diagram>
</mxfile>
